<svg width="525" height="150" viewBox="0 0 525 150" fill="none" xmlns="http://www.w3.org/2000/svg">
<path fill-rule="evenodd" clip-rule="evenodd" d="M54.8989 86.6511C61.7139 80.9741 68.948 77.5375 76.5605 76.32C84.7496 75.0108 93.3266 76.2784 102.233 80.043C110.048 83.3459 116.941 87.957 123.651 92.7123C130.313 97.4335 136.774 102.282 143.87 106.196C161.219 115.768 184.098 113.684 198.879 100.432C204.113 95.7383 209.542 87.9006 211.136 81.0965L211.137 81.0951C215.663 61.5102 204.052 43.0867 184.531 38.6471C175.243 36.538 165.498 38.2198 157.453 43.3205L156.86 43.7043C153.97 45.6157 151.772 47.6826 149.409 50.3178L148.547 51.2791L147.476 50.5576C144.76 48.728 142.011 46.8325 139.205 45.2576L137.738 44.4348L138.737 43.081C154.1 22.2479 185.57 19.4451 205.911 34.5315L205.911 34.5301C215.975 41.9402 222.679 53.0525 224.545 65.415C226.328 78.5061 222.826 91.7893 214.809 102.286L214.752 102.361C205.509 114.647 191.157 122.193 176.111 124.312C174.62 124.522 171.909 124.771 169.222 124.905C166.56 125.037 163.82 125.057 162.283 124.802C154.301 124.04 146.641 121.967 139.411 118.46C138.323 117.933 137.266 117.307 136.24 116.677C135.231 116.058 134.265 115.442 133.287 114.885C128.721 112.289 124.121 108.991 119.464 105.632C114.835 102.293 110.144 98.8898 105.307 96.0073C95.7787 90.3282 85.8172 86.7388 74.8871 89.8342C72.8579 90.409 70.3792 91.3782 68.0866 92.618C66.5139 93.4683 65.0566 94.4274 63.9072 95.4548L54.8989 86.6511Z" fill="#FE641D"/>
<path d="M25 57.43C29.1465 53.5848 34.3369 49.9526 39.0567 47.1386L39.0826 47.1234C76.1822 26.0208 114.564 34.9614 146.981 59.2035C152.256 63.1485 158.286 67.1943 163.954 70.5587L163.954 70.5575C166.349 71.9035 167.773 72.0841 168.759 71.7635C169.786 71.4296 171.356 69.5028 171.356 69.5028L171.595 69.2006C173.914 66.279 178.171 65.8122 181.067 68.1622C183.599 70.2162 184.314 73.8134 182.575 76.5706C181.873 77.6838 181.199 78.6747 180.764 79.1316C179.47 80.4876 177.991 81.7123 176.614 82.491C173.738 84.1325 169.42 85.0821 166.067 84.5187H166.064L166.003 84.5077L166 84.5075C157.292 82.9716 149.124 76.8557 141.745 71.3146L141.703 71.283C139.393 69.5485 137.158 67.8704 134.986 66.3915C104.785 45.8325 71.1282 40.2608 39.958 61.9417L33.9748 66.2014L25 57.43Z" fill="#FE641D"/>
<path d="M48.05 65.382C68.2362 52.9836 90.7759 52.7666 112.142 62.1152C120.578 65.8062 125.684 69.3112 133.321 74.2824L133.403 74.3382C139.347 78.6841 145.416 83.5928 151.96 87.1444C158.369 90.6231 165.142 92.7425 172.55 91.612C178.188 90.7512 183.472 87.9612 187 83.9012C190.48 79.899 192.244 74.6603 190.952 68.7822C189.805 63.5587 185.52 59.9393 180.55 58.6125C175.576 57.2848 170.027 58.2827 166.385 62.2172L165.53 63.1414L164.479 62.4489C161.817 60.6943 158.465 58.5236 155.949 56.5131L154.652 55.4748L155.827 54.3011C161.736 48.3979 168.119 45.2545 176.704 45.114C183.523 45.0028 191.71 48.4003 196.539 53.2443C201.535 58.3416 204.349 65.2002 204.368 72.3389C204.327 92.4621 186.961 104.474 168.418 104.757C167.458 104.748 165.471 104.712 164.514 104.655C157.054 104.015 150.472 101.218 144.322 97.5877C138.27 94.0163 132.552 89.5794 126.849 85.6399C112.824 75.9493 99.82 69.4921 86.8688 68.2841C74.5798 67.1377 62.2594 70.7364 49.0684 80.9525L39.5464 71.6466L39.7154 71.5111C42.3701 69.3819 45.0923 67.1985 48.05 65.382Z" fill="#FE641D"/>
<path d="M307.044 72.8762C311.29 75.0942 314.613 78.144 317.013 82.0256C319.413 85.9071 320.613 90.3894 320.613 95.4724C320.613 103.42 317.797 110.028 312.167 115.296C306.536 120.564 299.66 123.198 291.537 123.198H250V26.1588H288.491C296.429 26.1588 303.121 28.7465 308.567 33.9219C314.105 39.0049 316.874 45.3818 316.874 53.0525C316.874 61.4625 313.597 68.0704 307.044 72.8762ZM288.491 41.1306H265.922V66.638H288.491C291.998 66.638 294.952 65.4365 297.352 63.0336C299.752 60.5384 300.952 57.4886 300.952 53.8843C300.952 50.2799 299.752 47.2764 297.352 44.8735C294.952 42.3782 291.998 41.1306 288.491 41.1306ZM291.537 108.226C295.229 108.226 298.321 106.932 300.813 104.345C303.398 101.664 304.69 98.4298 304.69 94.6406C304.69 90.8515 303.398 87.6631 300.813 85.0754C298.321 82.3952 295.229 81.0552 291.537 81.0552H265.922V108.226H291.537Z" fill="#FE641D"/>
<path d="M329.384 123.198V26H344.337V123.198H329.384Z" fill="#FE641D"/>
<path d="M369.314 94.9179C370.422 100.186 372.96 104.252 376.929 107.117C380.899 109.89 385.744 111.276 391.467 111.276C399.405 111.276 405.359 108.411 409.328 102.681L421.651 109.89C414.82 119.963 404.713 125 391.329 125C380.068 125 370.976 121.581 364.053 114.742C357.13 107.81 353.669 99.0767 353.669 88.541C353.669 78.1902 357.084 69.5491 363.915 62.6178C370.745 55.594 379.514 52.0821 390.221 52.0821C400.375 52.0821 408.682 55.6402 415.143 62.7564C421.697 69.8726 424.974 78.5137 424.974 88.6797C424.974 90.2508 424.789 92.3302 424.42 94.9179H369.314ZM369.176 82.7187H409.882C408.867 77.0812 406.513 72.83 402.821 69.965C399.221 67.1 394.975 65.6676 390.083 65.6676C384.545 65.6676 379.929 67.1925 376.237 70.2423C372.545 73.2921 370.191 77.4509 369.176 82.7187Z" fill="#FE641D"/>
<path d="M445.341 94.9179C446.448 100.186 448.987 104.252 452.956 107.117C456.925 109.89 461.771 111.276 467.494 111.276C475.432 111.276 481.385 108.411 485.354 102.681L497.677 109.89C490.847 119.963 480.739 125 467.355 125C456.094 125 447.002 121.581 440.079 114.742C433.157 107.81 429.695 99.0767 429.695 88.541C429.695 78.1902 433.11 69.5491 439.941 62.6178C446.771 55.594 455.54 52.0821 466.248 52.0821C476.401 52.0821 484.708 55.6402 491.17 62.7564C497.723 69.8726 501 78.5137 501 88.6797C501 90.2508 500.815 92.3302 500.446 94.9179H445.341ZM445.202 82.7187H485.908C484.893 77.0812 482.539 72.83 478.847 69.965C475.247 67.1 471.001 65.6676 466.109 65.6676C460.571 65.6676 455.956 67.1925 452.264 70.2423C448.571 73.2921 446.218 77.4509 445.202 82.7187Z" fill="#FE641D"/>
</svg>
